<svg t="1585367093411" class="icon" viewBox="0 0 1024 1024" version="1.1" xmlns="http://www.w3.org/2000/svg" p-id="4027" width="200" height="200"><path d="M512.7 897.6C308 897.6 141.4 731 141.4 526.3c0-144.7 85-277.2 216.5-337.6 13.3-6.1 29.1-0.3 35.2 13 6.1 13.3 0.3 29.1-13 35.2-112.8 51.8-185.6 165.4-185.6 289.4 0 175.5 142.8 318.2 318.2 318.2s318.2-142.8 318.2-318.2c0-128.2-76.3-243.3-194.4-293.3-13.5-5.7-19.8-21.3-14.1-34.8 5.7-13.5 21.3-19.8 34.8-14.1C795 242.5 884 376.8 884 526.4c0 204.7-166.6 371.2-371.3 371.2z" fill="#8a8a8a" p-id="4028"></path><path d="M512.7 807.9c-153.5 0-278.5-124.9-278.5-278.5 0-7.3 5.9-13.3 13.3-13.3 7.3 0 13.3 5.9 13.3 13.3 0 138.9 113 251.9 251.9 251.9s251.9-113 251.9-251.9c0-44.2-11.6-87.7-33.5-125.7-3.7-6.3-1.5-14.5 4.9-18.1 6.3-3.7 14.4-1.5 18.1 4.9 24.3 42.1 37.1 90.1 37.1 138.9 0 153.6-124.9 278.5-278.5 278.5z" fill="#8a8a8a" p-id="4029"></path><path d="M512.7 592.7c-14.6 0-26.5-11.9-26.5-26.5V155.1c0-14.6 11.9-26.5 26.5-26.5s26.5 11.9 26.5 26.5v411.1c0 14.6-11.8 26.5-26.5 26.5z" fill="#8a8a8a" p-id="4030"></path><path d="M711.6 354m-13.3 0a13.3 13.3 0 1 0 26.6 0 13.3 13.3 0 1 0-26.6 0Z" fill="#8a8a8a" p-id="4031"></path></svg>